<mxfile host="app.diagrams.net" agent="Mozilla/5.0 (Windows NT 10.0; Win64; x64) AppleWebKit/537.36 (KHTML, like Gecko) Chrome/134.0.0.0 Safari/537.36" version="24.8.3">
  <diagram name="Page-1" id="f9lswVocqdK9bQ2cxhW1">
    <mxGraphModel dx="1195" dy="1057" grid="0" gridSize="10" guides="1" tooltips="1" connect="1" arrows="1" fold="1" page="0" pageScale="1" pageWidth="850" pageHeight="1100" math="0" shadow="0">
      <root>
        <mxCell id="0" />
        <mxCell id="1" parent="0" />
        <mxCell id="I3pV2VmHNszQZ0sS-55n-3" value="" style="shape=flexArrow;endArrow=classic;html=1;rounded=0;fontSize=12;startSize=8;endSize=8;curved=1;" edge="1" parent="1">
          <mxGeometry width="50" height="50" relative="1" as="geometry">
            <mxPoint x="279" y="-60" as="sourcePoint" />
            <mxPoint x="279" y="15" as="targetPoint" />
          </mxGeometry>
        </mxCell>
        <mxCell id="I3pV2VmHNszQZ0sS-55n-4" value="" style="shape=flexArrow;endArrow=classic;html=1;rounded=0;fontSize=12;startSize=8;endSize=8;curved=1;" edge="1" parent="1">
          <mxGeometry width="50" height="50" relative="1" as="geometry">
            <mxPoint x="168" y="209" as="sourcePoint" />
            <mxPoint x="168" y="119" as="targetPoint" />
          </mxGeometry>
        </mxCell>
        <mxCell id="I3pV2VmHNszQZ0sS-55n-6" value="&lt;font style=&quot;font-size: 100px;&quot;&gt;287546&lt;/font&gt;" style="text;html=1;align=center;verticalAlign=middle;whiteSpace=wrap;rounded=0;fontSize=16;" vertex="1" parent="1">
          <mxGeometry x="258" y="57" width="103" height="30" as="geometry" />
        </mxCell>
        <mxCell id="I3pV2VmHNszQZ0sS-55n-7" value="" style="endArrow=classic;html=1;rounded=0;fontSize=12;startSize=8;endSize=8;curved=1;" edge="1" parent="1">
          <mxGeometry width="50" height="50" relative="1" as="geometry">
            <mxPoint x="279" y="-214" as="sourcePoint" />
            <mxPoint x="279" y="-88" as="targetPoint" />
          </mxGeometry>
        </mxCell>
      </root>
    </mxGraphModel>
  </diagram>
</mxfile>
